<mxfile host="app.diagrams.net" modified="2024-09-26T22:02:58.086Z" agent="Mozilla/5.0 (Windows NT 10.0; Win64; x64) AppleWebKit/537.36 (KHTML, like Gecko) Chrome/129.0.0.0 Safari/537.36" version="24.2.0" etag="rKlr0wpFYs-SZCubg4o4" type="github">
  <diagram name="Page-1" id="TOHYXc9gKGRIgyujI_wf">
    <mxGraphModel>
      <root>
        <mxCell id="0" />
        <mxCell id="1" parent="0" />
      </root>
    </mxGraphModel>
  </diagram>
</mxfile>
